<svg xmlns="http://www.w3.org/2000/svg" xmlns:xlink="http://www.w3.org/1999/xlink" viewBox="0 0 406.46 355.4"><defs><style>.cls-1{isolation:isolate;}.cls-2{fill:#210656;}.cls-2,.cls-91{opacity:0.28;}.cls-2,.cls-47,.cls-74,.cls-92,.cls-96{mix-blend-mode:multiply;}.cls-3{fill:#d0ddff;}.cls-4{fill:#d8f4ff;}.cls-5{fill:#e6ffff;}.cls-6{fill:#bec0e9;}.cls-7{fill:#000039;}.cls-8{fill:#003284;}.cls-9{fill:#93a5c9;}.cls-10{fill:#a3bad7;}.cls-11,.cls-70,.cls-71,.cls-91{fill:#fff;}.cls-12{fill:#bbc5e1;}.cls-13{fill:#e1f1ff;}.cls-14{fill:#e5f0ff;}.cls-15{fill:#e0f3ff;}.cls-16{fill:#b6bad7;}.cls-17,.cls-72{fill:#00a3ff;}.cls-18{fill:#35efff;}.cls-19{fill:#00d4ff;}.cls-20{fill:#0075ec;}.cls-21{fill:#ffe200;}.cls-22{fill:#ffff4e;}.cls-23{fill:#ff2149;}.cls-24{fill:#ff528a;}.cls-25{fill:#0fe490;}.cls-26{fill:#45ffc6;}.cls-27{fill:#1fffc6;}.cls-28{fill:#0042ff;}.cls-29{fill:#ff3edd;}.cls-30{fill:#ff497e;}.cls-31{fill:#ffc400;}.cls-32{opacity:0.34;}.cls-33{fill:#ff1754;}.cls-34{fill:#ff3faa;}.cls-35{fill:#b5112b;}.cls-36{fill:#ff478b;}.cls-37{fill:#df093c;}.cls-38{fill:#dfe4ff;}.cls-39{fill:#c5c4e0;}.cls-40{fill:#ffd300;}.cls-41{fill:#02fd00;}.cls-42{fill:#d6deeb;}.cls-43{fill:#bccacb;}.cls-44{fill:#e9f1eb;}.cls-45{fill:#e6f8ff;}.cls-46,.cls-47{fill:#d1dded;}.cls-48{fill:#682118;}.cls-49{fill:#9a2f18;}.cls-50{fill:#7f2e18;}.cls-51{fill:#b45a18;}.cls-52{fill:#9b4318;}.cls-53{fill:#c35e18;}.cls-54{fill:#b45018;}.cls-55{fill:#dc6218;}.cls-56{fill:url(#Degradado_sin_nombre_30);}.cls-57{fill:url(#Degradado_sin_nombre_30-2);}.cls-58{fill:url(#Degradado_sin_nombre_30-3);}.cls-59{fill:#ff3967;}.cls-60{fill:#d1f0ff;}.cls-61{fill:#bdc6f4;}.cls-62{fill:#9a9cdf;}.cls-63{fill:#ffeeb1;}.cls-64{fill:#ff0;}.cls-65{fill:#ffd100;}.cls-66{fill:#ffa600;}.cls-67{fill:#ffdb00;}.cls-68{fill:#ffff6c;}.cls-69{fill:#ffb800;}.cls-70{opacity:0.2;}.cls-71{opacity:0.53;}.cls-72,.cls-75{opacity:0.3;}.cls-73{fill:#00e3ff;opacity:0.4;}.cls-74,.cls-92,.cls-96{opacity:0.81;}.cls-74{fill:url(#Degradado_sin_nombre_28);}.cls-75{fill:#002ab4;}.cls-76{fill:#ff2232;}.cls-77{fill:#ff787d;}.cls-78{fill:#b51413;}.cls-79{fill:#ffc500;}.cls-80{fill:#ffed00;}.cls-81{fill:#ff9700;}.cls-82{fill:#ffb100;}.cls-83{fill:#3dd376;}.cls-84{fill:#84fa9c;}.cls-85{fill:#1a9f58;}.cls-86,.cls-88,.cls-89,.cls-90{fill:none;stroke-linecap:round;stroke-linejoin:round;stroke-width:2px;}.cls-86{stroke:#12d77e;}.cls-87{fill:#12d77e;}.cls-88{stroke:#12ffff;}.cls-89{stroke:#ff3181;}.cls-90{stroke:#ffd000;}.cls-92{fill:url(#Degradado_sin_nombre_28-2);}.cls-93{fill:#12ffff;}.cls-94{fill:#ff3181;}.cls-95{fill:#ffd000;}.cls-96{fill:url(#Degradado_sin_nombre_28-3);}</style><linearGradient id="Degradado_sin_nombre_30" x1="35.86" y1="259.44" x2="8.01" y2="231.58" gradientUnits="userSpaceOnUse"><stop offset="0" stop-color="#e6eeff" stop-opacity="0"/><stop offset="1" stop-color="#e6eeff"/></linearGradient><linearGradient id="Degradado_sin_nombre_30-2" x1="29.42" y1="267.5" x2="16.48" y2="254.55" xlink:href="#Degradado_sin_nombre_30"/><linearGradient id="Degradado_sin_nombre_30-3" x1="54.85" y1="271.2" x2="46.75" y2="263.1" xlink:href="#Degradado_sin_nombre_30"/><linearGradient id="Degradado_sin_nombre_28" x1="39.36" y1="78.75" x2="229.45" y2="78.75" gradientUnits="userSpaceOnUse"><stop offset="0" stop-color="#190849"/><stop offset="1" stop-color="#300877"/></linearGradient><linearGradient id="Degradado_sin_nombre_28-2" x1="259.14" y1="138.81" x2="350.25" y2="138.81" xlink:href="#Degradado_sin_nombre_28"/><linearGradient id="Degradado_sin_nombre_28-3" x1="320.6" y1="49.5" x2="390.63" y2="49.5" xlink:href="#Degradado_sin_nombre_28"/></defs><g class="cls-1"><g id="Layer_2" data-name="Layer 2"><g id="OBJECTS"><rect class="cls-2" x="93.98" y="191.55" width="230.98" height="144.79" rx="13.64"/><rect class="cls-3" x="91.31" y="184.2" width="236.34" height="148.14" rx="13.64"/><path class="cls-4" d="M314,330.49H105a13.63,13.63,0,0,1-13.64-13.64v1.85A13.64,13.64,0,0,0,105,332.34H314a13.64,13.64,0,0,0,13.64-13.64v-1.85A13.64,13.64,0,0,1,314,330.49Z"/><rect class="cls-5" x="110.39" y="200.11" width="198.17" height="87.23" rx="4.81"/><rect class="cls-6" x="110.39" y="200.11" width="198.17" height="85.88" rx="4.81"/><path class="cls-7" d="M197.32,267.1h9.58a1,1,0,0,0,1-1v-8.81a1,1,0,0,0-1-1h-9.58a1,1,0,0,0-1,1v8.81A1,1,0,0,0,197.32,267.1Zm-15.72,0h9.58a1,1,0,0,0,1-1v-8.81a1,1,0,0,0-1-1H181.6a1,1,0,0,0-1,1v8.81A1,1,0,0,0,181.6,267.1Zm-62.9-41.56h9.59a1,1,0,0,0,1-1v-8.81a1,1,0,0,0-1-1H118.7a1,1,0,0,0-1,1v8.81A1,1,0,0,0,118.7,225.54Zm62.9,13.09h9.58a1,1,0,0,0,1-1v-8.81a1,1,0,0,0-1-1H181.6a1,1,0,0,0-1,1v8.81A1,1,0,0,0,181.6,238.63Zm0,14.24h9.58a1,1,0,0,0,1-1v-8.82a1,1,0,0,0-1-1H181.6a1,1,0,0,0-1,1v8.82A1,1,0,0,0,181.6,252.87Zm0-40.07h9.58a1,1,0,0,0,1-1v-4.62a1,1,0,0,0-1-1H181.6a1,1,0,0,0-1,1v4.62A1,1,0,0,0,181.6,212.8Zm0,12.74h9.58a1,1,0,0,0,1-1v-8.81a1,1,0,0,0-1-1H181.6a1,1,0,0,0-1,1v8.81A1,1,0,0,0,181.6,225.54ZM118.7,212.8h9.59a1,1,0,0,0,1-1v-4.62a1,1,0,0,0-1-1H118.7a1,1,0,0,0-1,1v4.62A1,1,0,0,0,118.7,212.8Zm25.31,15H118.7a1,1,0,0,0-1,1v8.81a1,1,0,0,0,1,1H144a1,1,0,0,0,1-1v-8.81A1,1,0,0,0,144,227.82Zm0,14.23h-9.59a1,1,0,0,0-1,1v8.82a1,1,0,0,0,1,1H144a1,1,0,0,0,1-1v-8.82A1,1,0,0,0,144,242.05Zm-15.72,14.24H118.7a1,1,0,0,0-1,1v8.81a1,1,0,0,0,1,1h9.59a1,1,0,0,0,1-1v-8.81A1,1,0,0,0,128.29,256.29ZM144,214.73h-9.59a1,1,0,0,0-1,1v8.81a1,1,0,0,0,1,1H144a1,1,0,0,0,1-1v-8.81A1,1,0,0,0,144,214.73Zm0,41.56h-9.59a1,1,0,0,0-1,1v8.81a1,1,0,0,0,1,1H144a1,1,0,0,0,1-1v-8.81A1,1,0,0,0,144,256.29Zm-15.72-14.24H118.7a1,1,0,0,0-1,1v8.82a1,1,0,0,0,1,1h9.59a1,1,0,0,0,1-1v-8.82A1,1,0,0,0,128.29,242.05ZM144,270.53h-9.59a1,1,0,0,0-1,1v8.81a1,1,0,0,0,1,1H144a1,1,0,0,0,1-1v-8.81A1,1,0,0,0,144,270.53Zm84.76-17.66h9.58a1,1,0,0,0,1-1v-8.82a1,1,0,0,0-1-1h-9.58a1,1,0,0,0-1,1v8.82A1,1,0,0,0,228.77,252.87Zm-31.45,0h9.58a1,1,0,0,0,1-1v-8.82a1,1,0,0,0-1-1h-9.58a1,1,0,0,0-1,1v8.82A1,1,0,0,0,197.32,252.87Zm31.45-14.24h9.58a1,1,0,0,0,1-1v-8.81a1,1,0,0,0-1-1h-9.58a1,1,0,0,0-1,1v8.81A1,1,0,0,0,228.77,238.63ZM213,212.8h9.59a1,1,0,0,0,1-1v-4.62a1,1,0,0,0-1-1H213a1,1,0,0,0-1,1v4.62A1,1,0,0,0,213,212.8Zm15.73,54.3h9.58a1,1,0,0,0,1-1v-8.81a1,1,0,0,0-1-1h-9.58a1,1,0,0,0-1,1v8.81A1,1,0,0,0,228.77,267.1Zm47.17-54.3h9.58a1,1,0,0,0,1-1v-4.62a1,1,0,0,0-1-1h-9.58a1,1,0,0,0-1,1v4.62A1,1,0,0,0,275.94,212.8Zm-47.17,0h9.58a1,1,0,0,0,1-1v-4.62a1,1,0,0,0-1-1h-9.58a1,1,0,0,0-1,1v4.62A1,1,0,0,0,228.77,212.8Zm0,12.74h9.58a1,1,0,0,0,1-1v-8.81a1,1,0,0,0-1-1h-9.58a1,1,0,0,0-1,1v8.81A1,1,0,0,0,228.77,225.54ZM144,206.18h-9.59a1,1,0,0,0-1,1v4.62a1,1,0,0,0,1,1H144a1,1,0,0,0,1-1v-4.62A1,1,0,0,0,144,206.18Zm53.31,19.36h9.58a1,1,0,0,0,1-1v-8.81a1,1,0,0,0-1-1h-9.58a1,1,0,0,0-1,1v8.81A1,1,0,0,0,197.32,225.54Zm15.72,0h9.59a1,1,0,0,0,1-1v-8.81a1,1,0,0,0-1-1H213a1,1,0,0,0-1,1v8.81A1,1,0,0,0,213,225.54Zm-15.72,13.09h9.58a1,1,0,0,0,1-1v-8.81a1,1,0,0,0-1-1h-9.58a1,1,0,0,0-1,1v8.81A1,1,0,0,0,197.32,238.63Zm0-25.83h9.58a1,1,0,0,0,1-1v-4.62a1,1,0,0,0-1-1h-9.58a1,1,0,0,0-1,1v4.62A1,1,0,0,0,197.32,212.8ZM213,267.1h9.59a1,1,0,0,0,1-1v-8.81a1,1,0,0,0-1-1H213a1,1,0,0,0-1,1v8.81A1,1,0,0,0,213,267.1Zm0-28.47h9.59a1,1,0,0,0,1-1v-8.81a1,1,0,0,0-1-1H213a1,1,0,0,0-1,1v8.81A1,1,0,0,0,213,238.63Zm0,14.24h9.59a1,1,0,0,0,1-1v-8.82a1,1,0,0,0-1-1H213a1,1,0,0,0-1,1v8.82A1,1,0,0,0,213,252.87Zm-84.75,17.66H118.7a1,1,0,0,0-1,1v8.81a1,1,0,0,0,1,1h9.59a1,1,0,0,0,1-1v-8.81A1,1,0,0,0,128.29,270.53ZM269.8,242.05h-9.59a1,1,0,0,0-1,1v8.82a1,1,0,0,0,1,1h9.59a1,1,0,0,0,1-1v-8.82A1,1,0,0,0,269.8,242.05Zm0-14.23h-9.59a1,1,0,0,0-1,1v8.81a1,1,0,0,0,1,1h9.59a1,1,0,0,0,1-1v-8.81A1,1,0,0,0,269.8,227.82Zm15.72,42.71h-9.58a1,1,0,0,0-1,1v8.81a1,1,0,0,0,1,1h9.58a1,1,0,0,0,1-1v-8.81A1,1,0,0,0,285.52,270.53ZM269.8,206.18h-9.59a1,1,0,0,0-1,1v4.62a1,1,0,0,0,1,1h9.59a1,1,0,0,0,1-1v-4.62A1,1,0,0,0,269.8,206.18Zm0,8.55h-9.59a1,1,0,0,0-1,1v8.81a1,1,0,0,0,1,1h9.59a1,1,0,0,0,1-1v-8.81A1,1,0,0,0,269.8,214.73Zm-15.72,0h-9.59a1,1,0,0,0-1,1v8.81a1,1,0,0,0,1,1h9.59a1,1,0,0,0,1-1v-8.81A1,1,0,0,0,254.08,214.73Zm0-8.55h-9.59a1,1,0,0,0-1,1v4.62a1,1,0,0,0,1,1h9.59a1,1,0,0,0,1-1v-4.62A1,1,0,0,0,254.08,206.18Zm15.72,64.35h-9.59a1,1,0,0,0-1,1v8.81a1,1,0,0,0,1,1h9.59a1,1,0,0,0,1-1v-8.81A1,1,0,0,0,269.8,270.53Zm0-14.24h-9.59a1,1,0,0,0-1,1v8.81a1,1,0,0,0,1,1h9.59a1,1,0,0,0,1-1v-8.81A1,1,0,0,0,269.8,256.29Zm31.45-41.56H275.94a1,1,0,0,0-1,1v8.81a1,1,0,0,0,1,1h25.31a1,1,0,0,0,1-1v-8.81A1,1,0,0,0,301.25,214.73Zm0-8.55h-9.59a1,1,0,0,0-1,1v4.62a1,1,0,0,0,1,1h9.59a1,1,0,0,0,1-1v-4.62A1,1,0,0,0,301.25,206.18Zm0,21.64H275.94a1,1,0,0,0-1,1v8.81a1,1,0,0,0,1,1h13.72a1,1,0,0,1,1,1v12.24a1,1,0,0,0,1,1h9.59a1,1,0,0,0,1-1V228.82A1,1,0,0,0,301.25,227.82ZM159.73,270.53h-9.58a1,1,0,0,0-1,1v8.81a1,1,0,0,0,1,1h9.58a1,1,0,0,0,1-1v-8.81A1,1,0,0,0,159.73,270.53Zm125.79-14.24h-9.58a1,1,0,0,0-1,1v8.81a1,1,0,0,0,1,1h9.58a1,1,0,0,0,1-1v-8.81A1,1,0,0,0,285.52,256.29Zm0-14.24h-9.58a1,1,0,0,0-1,1v8.82a1,1,0,0,0,1,1h9.58a1,1,0,0,0,1-1v-8.82A1,1,0,0,0,285.52,242.05Zm15.73,28.48h-9.59a1,1,0,0,0-1,1v8.81a1,1,0,0,0,1,1h9.59a1,1,0,0,0,1-1v-8.81A1,1,0,0,0,301.25,270.53Zm0-14.24h-9.59a1,1,0,0,0-1,1v8.81a1,1,0,0,0,1,1h9.59a1,1,0,0,0,1-1v-8.81A1,1,0,0,0,301.25,256.29Zm-125.79,0h-9.59a1,1,0,0,0-1,1v8.81a1,1,0,0,0,1,1h9.59a1,1,0,0,0,1-1v-8.81A1,1,0,0,0,175.46,256.29Zm-15.73-41.56h-9.58a1,1,0,0,0-1,1v8.81a1,1,0,0,0,1,1h9.58a1,1,0,0,0,1-1v-8.81A1,1,0,0,0,159.73,214.73Zm15.73,55.8h-9.59a1,1,0,0,0-1,1v8.81a1,1,0,0,0,1,1h9.59a1,1,0,0,0,1-1v-8.81A1,1,0,0,0,175.46,270.53Zm-15.73-64.35h-9.58a1,1,0,0,0-1,1v4.62a1,1,0,0,0,1,1h9.58a1,1,0,0,0,1-1v-4.62A1,1,0,0,0,159.73,206.18Zm94.35,21.64h-9.59a1,1,0,0,0-1,1v8.81a1,1,0,0,0,1,1h9.59a1,1,0,0,0,1-1v-8.81A1,1,0,0,0,254.08,227.82Zm-94.35,28.47h-9.58a1,1,0,0,0-1,1v8.81a1,1,0,0,0,1,1h9.58a1,1,0,0,0,1-1v-8.81A1,1,0,0,0,159.73,256.29Zm0-14.24h-9.58a1,1,0,0,0-1,1v8.82a1,1,0,0,0,1,1h9.58a1,1,0,0,0,1-1v-8.82A1,1,0,0,0,159.73,242.05Zm0-14.23h-9.58a1,1,0,0,0-1,1v8.81a1,1,0,0,0,1,1h9.58a1,1,0,0,0,1-1v-8.81A1,1,0,0,0,159.73,227.82Zm15.73,14.23h-9.59a1,1,0,0,0-1,1v8.82a1,1,0,0,0,1,1h9.59a1,1,0,0,0,1-1v-8.82A1,1,0,0,0,175.46,242.05Zm78.62,0h-9.59a1,1,0,0,0-1,1v8.82a1,1,0,0,0,1,1h9.59a1,1,0,0,0,1-1v-8.82A1,1,0,0,0,254.08,242.05Zm0,28.48H181.6a1,1,0,0,0-1,1v8.81a1,1,0,0,0,1,1h72.48a1,1,0,0,0,1-1v-8.81A1,1,0,0,0,254.08,270.53Zm0-14.24h-9.59a1,1,0,0,0-1,1v8.81a1,1,0,0,0,1,1h9.59a1,1,0,0,0,1-1v-8.81A1,1,0,0,0,254.08,256.29Zm-78.62-28.47h-9.59a1,1,0,0,0-1,1v8.81a1,1,0,0,0,1,1h9.59a1,1,0,0,0,1-1v-8.81A1,1,0,0,0,175.46,227.82Zm0-13.09h-9.59a1,1,0,0,0-1,1v8.81a1,1,0,0,0,1,1h9.59a1,1,0,0,0,1-1v-8.81A1,1,0,0,0,175.46,214.73Zm0-8.55h-9.59a1,1,0,0,0-1,1v4.62a1,1,0,0,0,1,1h9.59a1,1,0,0,0,1-1v-4.62A1,1,0,0,0,175.46,206.18Z"/><path class="cls-8" d="M118.7,206.36h9.59a1,1,0,0,1,1,1v-.18a1,1,0,0,0-1-1H118.7a1,1,0,0,0-1,1v.18A1,1,0,0,1,118.7,206.36Z"/><path class="cls-8" d="M118.7,214.91h9.59a1,1,0,0,1,1,1v-.18a1,1,0,0,0-1-1H118.7a1,1,0,0,0-1,1v.18A1,1,0,0,1,118.7,214.91Z"/><path class="cls-8" d="M181.6,256.48h9.58a1,1,0,0,1,1,1v-.19a1,1,0,0,0-1-1H181.6a1,1,0,0,0-1,1v.19A1,1,0,0,1,181.6,256.48Z"/><path class="cls-8" d="M181.6,228h9.58a1,1,0,0,1,1,1v-.18a1,1,0,0,0-1-1H181.6a1,1,0,0,0-1,1V229A1,1,0,0,1,181.6,228Z"/><path class="cls-8" d="M181.6,214.91h9.58a1,1,0,0,1,1,1v-.18a1,1,0,0,0-1-1H181.6a1,1,0,0,0-1,1v.18A1,1,0,0,1,181.6,214.91Z"/><path class="cls-8" d="M181.6,242.24h9.58a1,1,0,0,1,1,1v-.19a1,1,0,0,0-1-1H181.6a1,1,0,0,0-1,1v.19A1,1,0,0,1,181.6,242.24Z"/><path class="cls-8" d="M128.29,270.53H118.7a1,1,0,0,0-1,1v.18a1,1,0,0,1,1-1h9.59a1,1,0,0,1,1,1v-.18A1,1,0,0,0,128.29,270.53Z"/><path class="cls-8" d="M144,242.05h-9.59a1,1,0,0,0-1,1v.19a1,1,0,0,1,1-1H144a1,1,0,0,1,1,1v-.19A1,1,0,0,0,144,242.05Z"/><path class="cls-8" d="M128.29,256.29H118.7a1,1,0,0,0-1,1v.19a1,1,0,0,1,1-1h9.59a1,1,0,0,1,1,1v-.19A1,1,0,0,0,128.29,256.29Z"/><path class="cls-8" d="M181.6,206.36h9.58a1,1,0,0,1,1,1v-.18a1,1,0,0,0-1-1H181.6a1,1,0,0,0-1,1v.18A1,1,0,0,1,181.6,206.36Z"/><path class="cls-8" d="M144,214.73h-9.59a1,1,0,0,0-1,1v.18a1,1,0,0,1,1-1H144a1,1,0,0,1,1,1v-.18A1,1,0,0,0,144,214.73Z"/><path class="cls-8" d="M144,227.82H118.7a1,1,0,0,0-1,1V229a1,1,0,0,1,1-1H144a1,1,0,0,1,1,1v-.18A1,1,0,0,0,144,227.82Z"/><path class="cls-8" d="M128.29,242.05H118.7a1,1,0,0,0-1,1v.19a1,1,0,0,1,1-1h9.59a1,1,0,0,1,1,1v-.19A1,1,0,0,0,128.29,242.05Z"/><path class="cls-8" d="M144,270.53h-9.59a1,1,0,0,0-1,1v.18a1,1,0,0,1,1-1H144a1,1,0,0,1,1,1v-.18A1,1,0,0,0,144,270.53Z"/><path class="cls-8" d="M144,256.29h-9.59a1,1,0,0,0-1,1v.19a1,1,0,0,1,1-1H144a1,1,0,0,1,1,1v-.19A1,1,0,0,0,144,256.29Z"/><path class="cls-8" d="M228.77,256.48h9.58a1,1,0,0,1,1,1v-.19a1,1,0,0,0-1-1h-9.58a1,1,0,0,0-1,1v.19A1,1,0,0,1,228.77,256.48Z"/><path class="cls-8" d="M228.77,228h9.58a1,1,0,0,1,1,1v-.18a1,1,0,0,0-1-1h-9.58a1,1,0,0,0-1,1V229A1,1,0,0,1,228.77,228Z"/><path class="cls-8" d="M228.77,242.24h9.58a1,1,0,0,1,1,1v-.19a1,1,0,0,0-1-1h-9.58a1,1,0,0,0-1,1v.19A1,1,0,0,1,228.77,242.24Z"/><path class="cls-8" d="M144,206.18h-9.59a1,1,0,0,0-1,1v.18a1,1,0,0,1,1-1H144a1,1,0,0,1,1,1v-.18A1,1,0,0,0,144,206.18Z"/><path class="cls-8" d="M213,206.36h9.59a1,1,0,0,1,1,1v-.18a1,1,0,0,0-1-1H213a1,1,0,0,0-1,1v.18A1,1,0,0,1,213,206.36Z"/><path class="cls-8" d="M213,214.91h9.59a1,1,0,0,1,1,1v-.18a1,1,0,0,0-1-1H213a1,1,0,0,0-1,1v.18A1,1,0,0,1,213,214.91Z"/><path class="cls-8" d="M275.94,206.36h9.58a1,1,0,0,1,1,1v-.18a1,1,0,0,0-1-1h-9.58a1,1,0,0,0-1,1v.18A1,1,0,0,1,275.94,206.36Z"/><path class="cls-8" d="M228.77,214.91h9.58a1,1,0,0,1,1,1v-.18a1,1,0,0,0-1-1h-9.58a1,1,0,0,0-1,1v.18A1,1,0,0,1,228.77,214.91Z"/><path class="cls-8" d="M228.77,206.36h9.58a1,1,0,0,1,1,1v-.18a1,1,0,0,0-1-1h-9.58a1,1,0,0,0-1,1v.18A1,1,0,0,1,228.77,206.36Z"/><path class="cls-8" d="M213,228h9.59a1,1,0,0,1,1,1v-.18a1,1,0,0,0-1-1H213a1,1,0,0,0-1,1V229A1,1,0,0,1,213,228Z"/><path class="cls-8" d="M197.32,214.91h9.58a1,1,0,0,1,1,1v-.18a1,1,0,0,0-1-1h-9.58a1,1,0,0,0-1,1v.18A1,1,0,0,1,197.32,214.91Z"/><path class="cls-8" d="M197.32,228h9.58a1,1,0,0,1,1,1v-.18a1,1,0,0,0-1-1h-9.58a1,1,0,0,0-1,1V229A1,1,0,0,1,197.32,228Z"/><path class="cls-8" d="M197.32,242.24h9.58a1,1,0,0,1,1,1v-.19a1,1,0,0,0-1-1h-9.58a1,1,0,0,0-1,1v.19A1,1,0,0,1,197.32,242.24Z"/><path class="cls-8" d="M213,242.24h9.59a1,1,0,0,1,1,1v-.19a1,1,0,0,0-1-1H213a1,1,0,0,0-1,1v.19A1,1,0,0,1,213,242.24Z"/><path class="cls-8" d="M197.32,256.48h9.58a1,1,0,0,1,1,1v-.19a1,1,0,0,0-1-1h-9.58a1,1,0,0,0-1,1v.19A1,1,0,0,1,197.32,256.48Z"/><path class="cls-8" d="M197.32,206.36h9.58a1,1,0,0,1,1,1v-.18a1,1,0,0,0-1-1h-9.58a1,1,0,0,0-1,1v.18A1,1,0,0,1,197.32,206.36Z"/><path class="cls-8" d="M213,256.48h9.59a1,1,0,0,1,1,1v-.19a1,1,0,0,0-1-1H213a1,1,0,0,0-1,1v.19A1,1,0,0,1,213,256.48Z"/><path class="cls-8" d="M254.08,270.53H181.6a1,1,0,0,0-1,1v.18a1,1,0,0,1,1-1h72.48a1,1,0,0,1,1,1v-.18A1,1,0,0,0,254.08,270.53Z"/><path class="cls-8" d="M285.52,270.53h-9.58a1,1,0,0,0-1,1v.18a1,1,0,0,1,1-1h9.58a1,1,0,0,1,1,1v-.18A1,1,0,0,0,285.52,270.53Z"/><path class="cls-8" d="M269.8,206.18h-9.59a1,1,0,0,0-1,1v.18a1,1,0,0,1,1-1h9.59a1,1,0,0,1,1,1v-.18A1,1,0,0,0,269.8,206.18Z"/><path class="cls-8" d="M269.8,227.82h-9.59a1,1,0,0,0-1,1V229a1,1,0,0,1,1-1h9.59a1,1,0,0,1,1,1v-.18A1,1,0,0,0,269.8,227.82Z"/><path class="cls-8" d="M269.8,214.73h-9.59a1,1,0,0,0-1,1v.18a1,1,0,0,1,1-1h9.59a1,1,0,0,1,1,1v-.18A1,1,0,0,0,269.8,214.73Z"/><path class="cls-8" d="M269.8,242.05h-9.59a1,1,0,0,0-1,1v.19a1,1,0,0,1,1-1h9.59a1,1,0,0,1,1,1v-.19A1,1,0,0,0,269.8,242.05Z"/><path class="cls-8" d="M269.8,270.53h-9.59a1,1,0,0,0-1,1v.18a1,1,0,0,1,1-1h9.59a1,1,0,0,1,1,1v-.18A1,1,0,0,0,269.8,270.53Z"/><path class="cls-8" d="M269.8,256.29h-9.59a1,1,0,0,0-1,1v.19a1,1,0,0,1,1-1h9.59a1,1,0,0,1,1,1v-.19A1,1,0,0,0,269.8,256.29Z"/><path class="cls-8" d="M301.25,206.18h-9.59a1,1,0,0,0-1,1v.18a1,1,0,0,1,1-1h9.59a1,1,0,0,1,1,1v-.18A1,1,0,0,0,301.25,206.18Z"/><path class="cls-8" d="M285.52,256.29h-9.58a1,1,0,0,0-1,1v.19a1,1,0,0,1,1-1h9.58a1,1,0,0,1,1,1v-.19A1,1,0,0,0,285.52,256.29Z"/><path class="cls-8" d="M254.08,206.18h-9.59a1,1,0,0,0-1,1v.18a1,1,0,0,1,1-1h9.59a1,1,0,0,1,1,1v-.18A1,1,0,0,0,254.08,206.18Z"/><path class="cls-8" d="M301.25,227.82H275.94a1,1,0,0,0-1,1V229a1,1,0,0,1,1-1h25.31a1,1,0,0,1,1,1v-.18A1,1,0,0,0,301.25,227.82Z"/><path class="cls-8" d="M301.25,214.73H275.94a1,1,0,0,0-1,1v.18a1,1,0,0,1,1-1h25.31a1,1,0,0,1,1,1v-.18A1,1,0,0,0,301.25,214.73Z"/><path class="cls-8" d="M301.25,256.29h-9.59a1,1,0,0,0-1,1v.19a1,1,0,0,1,1-1h9.59a1,1,0,0,1,1,1v-.19A1,1,0,0,0,301.25,256.29Z"/><path class="cls-8" d="M285.52,242.05h-9.58a1,1,0,0,0-1,1v.19a1,1,0,0,1,1-1h9.58a1,1,0,0,1,1,1v-.19A1,1,0,0,0,285.52,242.05Z"/><path class="cls-8" d="M301.25,270.53h-9.59a1,1,0,0,0-1,1v.18a1,1,0,0,1,1-1h9.59a1,1,0,0,1,1,1v-.18A1,1,0,0,0,301.25,270.53Z"/><path class="cls-8" d="M175.46,256.29h-9.59a1,1,0,0,0-1,1v.19a1,1,0,0,1,1-1h9.59a1,1,0,0,1,1,1v-.19A1,1,0,0,0,175.46,256.29Z"/><path class="cls-8" d="M159.73,206.18h-9.58a1,1,0,0,0-1,1v.18a1,1,0,0,1,1-1h9.58a1,1,0,0,1,1,1v-.18A1,1,0,0,0,159.73,206.18Z"/><path class="cls-8" d="M175.46,270.53h-9.59a1,1,0,0,0-1,1v.18a1,1,0,0,1,1-1h9.59a1,1,0,0,1,1,1v-.18A1,1,0,0,0,175.46,270.53Z"/><path class="cls-8" d="M159.73,270.53h-9.58a1,1,0,0,0-1,1v.18a1,1,0,0,1,1-1h9.58a1,1,0,0,1,1,1v-.18A1,1,0,0,0,159.73,270.53Z"/><path class="cls-8" d="M159.73,214.73h-9.58a1,1,0,0,0-1,1v.18a1,1,0,0,1,1-1h9.58a1,1,0,0,1,1,1v-.18A1,1,0,0,0,159.73,214.73Z"/><path class="cls-8" d="M159.73,256.29h-9.58a1,1,0,0,0-1,1v.19a1,1,0,0,1,1-1h9.58a1,1,0,0,1,1,1v-.19A1,1,0,0,0,159.73,256.29Z"/><path class="cls-8" d="M159.73,227.82h-9.58a1,1,0,0,0-1,1V229a1,1,0,0,1,1-1h9.58a1,1,0,0,1,1,1v-.18A1,1,0,0,0,159.73,227.82Z"/><path class="cls-8" d="M159.73,242.05h-9.58a1,1,0,0,0-1,1v.19a1,1,0,0,1,1-1h9.58a1,1,0,0,1,1,1v-.19A1,1,0,0,0,159.73,242.05Z"/><path class="cls-8" d="M254.08,242.05h-9.59a1,1,0,0,0-1,1v.19a1,1,0,0,1,1-1h9.59a1,1,0,0,1,1,1v-.19A1,1,0,0,0,254.08,242.05Z"/><path class="cls-8" d="M254.08,256.29h-9.59a1,1,0,0,0-1,1v.19a1,1,0,0,1,1-1h9.59a1,1,0,0,1,1,1v-.19A1,1,0,0,0,254.08,256.29Z"/><path class="cls-8" d="M254.08,214.73h-9.59a1,1,0,0,0-1,1v.18a1,1,0,0,1,1-1h9.59a1,1,0,0,1,1,1v-.18A1,1,0,0,0,254.08,214.73Z"/><path class="cls-8" d="M254.08,227.82h-9.59a1,1,0,0,0-1,1V229a1,1,0,0,1,1-1h9.59a1,1,0,0,1,1,1v-.18A1,1,0,0,0,254.08,227.82Z"/><path class="cls-8" d="M175.46,206.18h-9.59a1,1,0,0,0-1,1v.18a1,1,0,0,1,1-1h9.59a1,1,0,0,1,1,1v-.18A1,1,0,0,0,175.46,206.18Z"/><path class="cls-8" d="M175.46,227.82h-9.59a1,1,0,0,0-1,1V229a1,1,0,0,1,1-1h9.59a1,1,0,0,1,1,1v-.18A1,1,0,0,0,175.46,227.82Z"/><path class="cls-8" d="M175.46,214.73h-9.59a1,1,0,0,0-1,1v.18a1,1,0,0,1,1-1h9.59a1,1,0,0,1,1,1v-.18A1,1,0,0,0,175.46,214.73Z"/><path class="cls-8" d="M175.46,242.05h-9.59a1,1,0,0,0-1,1v.19a1,1,0,0,1,1-1h9.59a1,1,0,0,1,1,1v-.19A1,1,0,0,0,175.46,242.05Z"/><rect class="cls-5" x="179.52" y="290.68" width="59.43" height="34.81" rx="4.81"/><rect class="cls-6" x="179.52" y="290.68" width="59.43" height="34.5" rx="4.81"/><rect class="cls-5" x="179.52" y="318.83" width="59.43" height="0.69"/><rect class="cls-9" x="179.52" y="318.67" width="59.43" height="0.69"/><path class="cls-10" d="M322.38,181.85H96.56a5.1,5.1,0,0,1-4.79-3.37L71.32,125.86a6.09,6.09,0,0,1,6.1-7.15H341.53a6.35,6.35,0,0,1,6,7.81l-20.39,52A5.11,5.11,0,0,1,322.38,181.85Z"/><path class="cls-11" d="M77.42,118.88H341.53a6.23,6.23,0,0,1,6.17,6.28,6.25,6.25,0,0,0-6.17-6.45H77.42a6.07,6.07,0,0,0-6.17,6.4A6.06,6.06,0,0,1,77.42,118.88Z"/><path class="cls-12" d="M323.21,184.2H95.74a5.15,5.15,0,0,1-4.83-3.39L71.63,127.48a5.13,5.13,0,0,1,4.83-6.88h266a5.13,5.13,0,0,1,4.83,6.88L328,180.81A5.15,5.15,0,0,1,323.21,184.2Z"/><path class="cls-7" d="M342.49,120.6h-266a5.13,5.13,0,0,0-4.83,6.88l18.44,51h238.8l18.45-51A5.13,5.13,0,0,0,342.49,120.6Z"/><polygon class="cls-13" points="77.07 126.82 94.6 176.72 323.34 176.72 341.79 126.82 77.07 126.82"/><path class="cls-11" d="M333.88,161.4,347.36,127a5.13,5.13,0,0,0-4.87-6.74h-266a5.13,5.13,0,0,0-5.12,5.62l12.88,33.15L72.57,126.84a4.13,4.13,0,0,1,3.89-5.54h266a4.13,4.13,0,0,1,3.89,5.54Z"/><path class="cls-14" d="M342.49,121.6a4.13,4.13,0,0,1,3.89,5.54L327.1,180.47a4.16,4.16,0,0,1-3.89,2.73H95.74a4.16,4.16,0,0,1-3.89-2.73L72.57,127.14a4.13,4.13,0,0,1,3.89-5.54h266m0-1h-266a5.13,5.13,0,0,0-4.83,6.88l19.28,53.33a5.15,5.15,0,0,0,4.83,3.39H323.21a5.15,5.15,0,0,0,4.83-3.39l19.28-53.33a5.13,5.13,0,0,0-4.83-6.88Z"/><ellipse class="cls-15" cx="310.02" cy="193.54" rx="5.13" ry="5.25"/><circle class="cls-16" cx="310.02" cy="193.42" r="5.12"/><circle class="cls-3" cx="310.02" cy="193.42" r="4.22"/><path class="cls-15" d="M310,197.53a4.21,4.21,0,0,1-4.21-4.16s0,0,0,0a4.22,4.22,0,0,0,8.43,0v0A4.21,4.21,0,0,1,310,197.53Z"/><polygon class="cls-17" points="81.78 140.21 336.84 140.21 341.79 126.82 77.07 126.82 81.78 140.21"/><polygon class="cls-18" points="341.63 127.27 341.79 126.82 77.07 126.82 77.23 127.27 341.63 127.27"/><ellipse class="cls-19" cx="86.84" cy="133.84" rx="3.01" ry="4.13" transform="translate(-72.44 124.71) rotate(-53.74)"/><ellipse class="cls-20" cx="86.82" cy="133.76" rx="2.98" ry="4.09" transform="translate(-72.62 130.57) rotate(-55.87)"/><ellipse class="cls-21" cx="86.82" cy="133.76" rx="2.1" ry="2.88" transform="translate(-72.62 130.57) rotate(-55.87)"/><path class="cls-22" d="M86.09,131.48a3.68,3.68,0,0,1,3.28,2.33.09.09,0,0,0,0-.05,3.67,3.67,0,0,0-3.31-2.37,1.73,1.73,0,0,0-1.78,2.37l0,.05A1.73,1.73,0,0,1,86.09,131.48Z"/><ellipse class="cls-19" cx="96.13" cy="133.84" rx="3.01" ry="4.13" transform="translate(-68.65 132.2) rotate(-53.74)"/><ellipse class="cls-20" cx="96.1" cy="133.76" rx="2.98" ry="4.09" transform="translate(-68.54 138.25) rotate(-55.87)"/><ellipse class="cls-23" cx="96.1" cy="133.76" rx="2.1" ry="2.88" transform="translate(-68.54 138.25) rotate(-55.87)"/><path class="cls-24" d="M95.37,131.48a3.68,3.68,0,0,1,3.29,2.33.09.09,0,0,0,0-.05,3.67,3.67,0,0,0-3.31-2.37,1.73,1.73,0,0,0-1.78,2.37s0,0,0,.05A1.72,1.72,0,0,1,95.37,131.48Z"/><ellipse class="cls-19" cx="105.42" cy="133.84" rx="3.01" ry="4.13" transform="matrix(0.59, -0.81, 0.81, 0.59, -64.85, 139.69)"/><ellipse class="cls-20" cx="105.39" cy="133.76" rx="2.98" ry="4.09" transform="translate(-64.47 145.94) rotate(-55.87)"/><ellipse class="cls-25" cx="105.39" cy="133.76" rx="2.1" ry="2.88" transform="translate(-64.47 145.94) rotate(-55.87)"/><path class="cls-26" d="M104.66,131.48a3.68,3.68,0,0,1,3.29,2.33.09.09,0,0,1,0-.05,3.67,3.67,0,0,0-3.31-2.37,1.72,1.72,0,0,0-1.78,2.37s0,0,0,.05A1.72,1.72,0,0,1,104.66,131.48Z"/><line class="cls-27" x1="213.01" y1="152.4" x2="213.01" y2="147.63"/><path class="cls-27" d="M197.55,149.13H93.45a1.5,1.5,0,1,1,0-3h104.1a1.5,1.5,0,0,1,0,3Z"/><path class="cls-28" d="M217.84,149.13h-12.2a1.5,1.5,0,0,1,0-3h12.2a1.5,1.5,0,1,1,0,3Z"/><path class="cls-27" d="M259.21,149.13H225.43a1.5,1.5,0,0,1,0-3h33.78a1.5,1.5,0,0,1,0,3Z"/><path class="cls-29" d="M280.73,149.13h-6.8a1.5,1.5,0,0,1,0-3h6.8a1.5,1.5,0,0,1,0,3Z"/><path class="cls-29" d="M292.4,149.13h-6.81a1.5,1.5,0,0,1,0-3h6.81a1.5,1.5,0,0,1,0,3Z"/><path class="cls-28" d="M113.65,156.09H96.05a1.5,1.5,0,1,1,0-3h17.6a1.5,1.5,0,0,1,0,3Z"/><path class="cls-27" d="M158.81,156.09H123.49a1.5,1.5,0,1,1,0-3h35.32a1.5,1.5,0,0,1,0,3Z"/><path class="cls-28" d="M227.77,156.09H168.84a1.5,1.5,0,0,1,0-3h58.93a1.5,1.5,0,0,1,0,3Z"/><path class="cls-30" d="M136.51,164.73H98.66a1.5,1.5,0,0,1,0-3h37.85a1.5,1.5,0,0,1,0,3Z"/><path class="cls-30" d="M149.15,164.73H145a1.5,1.5,0,0,1,0-3h4.14a1.5,1.5,0,0,1,0,3Z"/><path class="cls-30" d="M164.87,164.73h-6.06a1.5,1.5,0,0,1,0-3h6.06a1.5,1.5,0,0,1,0,3Z"/><path class="cls-30" d="M180.6,164.73h-8.69a1.5,1.5,0,0,1,0-3h8.69a1.5,1.5,0,0,1,0,3Z"/><path class="cls-30" d="M246.06,156.09H234.91a1.5,1.5,0,0,1,0-3h11.15a1.5,1.5,0,0,1,0,3Z"/><path class="cls-30" d="M277.33,156.09H253a1.5,1.5,0,0,1,0-3h24.31a1.5,1.5,0,0,1,0,3Z"/><path class="cls-31" d="M127.87,172.54h-27a1.5,1.5,0,0,1,0-3h27a1.5,1.5,0,0,1,0,3Z"/><path class="cls-31" d="M319.92,166.41H259.21a1.5,1.5,0,0,1,0-3h60.71a1.5,1.5,0,0,1,0,3Z"/><path class="cls-31" d="M316.58,172.54H307.1a1.5,1.5,0,0,1,0-3h9.48a1.5,1.5,0,0,1,0,3Z"/><path class="cls-31" d="M302.25,172.54H294a1.5,1.5,0,0,1,0-3h8.25a1.5,1.5,0,0,1,0,3Z"/><g class="cls-32"><polygon class="cls-13" points="248.57 126.82 158.05 126.82 108.15 176.72 198.66 176.72 248.57 126.82"/><polygon class="cls-13" points="314.44 126.82 276.98 126.82 227.08 176.72 264.54 176.72 314.44 126.82"/><polygon class="cls-13" points="341.32 128.09 341.79 126.82 332.28 126.82 282.37 176.72 292.69 176.72 341.32 128.09"/></g><path class="cls-33" d="M343.63,249.84H400.1a4.91,4.91,0,0,1,4.91,4.91v74.43a4.91,4.91,0,0,1-4.91,4.91H343.63a0,0,0,0,1,0,0V249.84A0,0,0,0,1,343.63,249.84Z"/><path class="cls-34" d="M400.1,249.84h-.2a4.91,4.91,0,0,1,4.91,4.91v74.44a4.91,4.91,0,0,1-4.91,4.91h.2a4.91,4.91,0,0,0,4.91-4.91V254.75A4.91,4.91,0,0,0,400.1,249.84Z"/><rect class="cls-35" x="343.63" y="249.84" width="10.39" height="84.25"/><rect class="cls-36" x="354.02" y="249.84" width="1.13" height="84.25" transform="translate(709.17 583.94) rotate(180)"/><rect class="cls-37" x="388.37" y="249.84" width="6.99" height="84.25"/><rect class="cls-38" x="389.24" y="249.05" width="6.99" height="85.83"/><rect class="cls-11" x="389.24" y="249.05" width="0.53" height="85.83"/><rect class="cls-11" x="390.4" y="249.05" width="0.07" height="85.83"/><rect class="cls-39" x="390.47" y="249.05" width="0.15" height="85.83"/><rect class="cls-11" x="391.39" y="249.05" width="0.07" height="85.83"/><rect class="cls-39" x="391.46" y="249.05" width="0.15" height="85.83"/><rect class="cls-11" x="392.38" y="249.05" width="0.07" height="85.83"/><rect class="cls-39" x="392.45" y="249.05" width="0.15" height="85.83"/><rect class="cls-11" x="393.37" y="249.05" width="0.07" height="85.83"/><rect class="cls-39" x="393.44" y="249.05" width="0.15" height="85.83"/><rect class="cls-11" x="394.36" y="249.05" width="0.07" height="85.83"/><rect class="cls-39" x="394.43" y="249.05" width="0.15" height="85.83"/><rect class="cls-11" x="395.35" y="249.05" width="0.07" height="85.83"/><rect class="cls-39" x="395.42" y="249.05" width="0.15" height="85.83"/><rect class="cls-40" x="357.92" y="321.1" width="17.24" height="8.83"/><rect class="cls-40" x="357.92" y="317.88" width="17.24" height="2.05"/><rect class="cls-41" x="357.92" y="314.66" width="8.62" height="2.05"/><circle class="cls-42" cx="36.85" cy="261.7" r="36.85"/><path class="cls-43" d="M66.49,257.8a30,30,0,1,0,0,11.66h3.86A5.73,5.73,0,0,0,73,268.8a36.92,36.92,0,0,0,.69-7.1c0-1,0-1.95-.12-2.91a5.77,5.77,0,0,0-3.24-1Z"/><path class="cls-44" d="M36.85,225.46A36.85,36.85,0,0,1,73.69,262v-.3A36.85,36.85,0,1,0,0,261.7c0,.1,0,.2,0,.3A36.84,36.84,0,0,1,36.85,225.46Z"/><rect class="cls-11" x="55.48" y="255.93" width="20.68" height="11.66" rx="5.83"/><circle class="cls-45" cx="37.05" cy="261.7" r="29.99"/><path class="cls-11" d="M37.05,232a30,30,0,0,1,30,29.85v-.15a30,30,0,1,0-60,0v.15A30,30,0,0,1,37.05,232Z"/><ellipse class="cls-11" cx="37.05" cy="261.89" rx="26.31" ry="26.51"/><circle class="cls-46" cx="37.05" cy="261.7" r="26.31"/><circle class="cls-47" cx="37.05" cy="261.7" r="24.31"/><circle class="cls-48" cx="37.05" cy="261.7" r="23.77"/><path class="cls-49" d="M37.05,238.19a23.77,23.77,0,0,1,23.77,23.64v-.13a23.77,23.77,0,1,0-47.53,0v.13A23.76,23.76,0,0,1,37.05,238.19Z"/><circle class="cls-50" cx="37.05" cy="261.7" r="18.42"/><path class="cls-51" d="M37.05,243.44a18.41,18.41,0,0,1,18.42,18.34s0,0,0-.08a18.43,18.43,0,0,0-36.85,0s0,.05,0,.08A18.41,18.41,0,0,1,37.05,243.44Z"/><circle class="cls-52" cx="37.05" cy="261.7" r="11.05"/><path class="cls-53" d="M37.05,250.76a11,11,0,0,1,11.05,11s0,0,0-.06a11.06,11.06,0,0,0-22.11,0s0,0,0,.06A11,11,0,0,1,37.05,250.76Z"/><circle class="cls-54" cx="37.05" cy="261.7" r="4.49"/><path class="cls-55" d="M37.05,257.37a4.49,4.49,0,0,1,4.49,4.41s0,0,0-.08a4.5,4.5,0,1,0-9,0s0,.05,0,.08A4.48,4.48,0,0,1,37.05,257.37Z"/><circle class="cls-56" cx="30.63" cy="254.2" r="11.99"/><circle class="cls-57" cx="26.99" cy="265.07" r="5.57"/><circle class="cls-58" cx="53.33" cy="269.68" r="3.49"/><rect class="cls-59" x="391.25" y="345.25" width="15.21" height="10.01" rx="5"/><path class="cls-60" d="M399.14,351.94l-1.05,3.35-52.65.11a1.66,1.66,0,0,1-1.68-1.67h0a1.67,1.67,0,0,1,1.67-1.67Z"/><path class="cls-61" d="M399.13,348.59v3.35l-53.71.12a1.69,1.69,0,0,1-1.68-1.67h0a1.68,1.68,0,0,1,1.67-1.68Z"/><path class="cls-62" d="M398.07,345.25l1.06,3.34-53.71.12a1.67,1.67,0,0,1-1.67-1.67h0a1.68,1.68,0,0,1,1.67-1.68Z"/><path class="cls-63" d="M341.84,345.55l-12.86,4a.86.86,0,0,0,0,1.67l12.95,4,2.32-4.86Z"/><path class="cls-64" d="M396.33,351.94l-1.05,3.35-52.66.11a1.66,1.66,0,0,1-1.67-1.67h0a1.67,1.67,0,0,1,1.67-1.67Z"/><path class="cls-65" d="M396.32,348.59v3.35l-53.71.12a1.68,1.68,0,0,1-1.68-1.67h0a1.68,1.68,0,0,1,1.67-1.68Z"/><path class="cls-66" d="M395.26,345.25l1.06,3.34-53.71.12a1.67,1.67,0,0,1-1.67-1.67h0a1.68,1.68,0,0,1,1.67-1.68Z"/><path class="cls-67" d="M328.67,351.26l6.29,1.85a7.19,7.19,0,0,0,.63-2.69,5.65,5.65,0,0,0-.54-2.39l-6.38,1.56A.86.86,0,0,0,328.67,351.26Z"/><path class="cls-68" d="M328.57,350.37c-.17,0-.17.24.1.25l6.87.56a3.06,3.06,0,0,0,0-.73Z"/><path class="cls-69" d="M328.67,349.59l-.15.05h0l-.12.07h0a.69.69,0,0,0-.19.19l0,0a.25.25,0,0,0,0,.07l0,.05s0,0,0,.06l0,.05h0a.85.85,0,0,1,.53-.3l6.76-1.1a9,9,0,0,0-.42-1.06Z"/><path class="cls-68" d="M341,353.73a1.66,1.66,0,0,0,1.67,1.67l52.66-.11.52-1.68Z"/><path class="cls-68" d="M342.62,352.06l53.71-.12v-.18l-54.44.12A1.65,1.65,0,0,0,342.62,352.06Z"/><path class="cls-68" d="M342.61,348.71l53.71-.12-.06-.17-54.39.12A1.71,1.71,0,0,0,342.61,348.71Z"/><path class="cls-68" d="M340.94,347a1.67,1.67,0,0,0,1.67,1.67h.12a1.68,1.68,0,0,1,0-3.35h-.12A1.68,1.68,0,0,0,340.94,347Z"/><path class="cls-68" d="M340.94,350.4a1.66,1.66,0,0,0,1.68,1.67h.12a1.67,1.67,0,1,1,0-3.34h-.12A1.67,1.67,0,0,0,340.94,350.4Z"/><path class="cls-68" d="M341,353.73a1.66,1.66,0,0,0,1.67,1.67h.12a1.67,1.67,0,0,1,0-3.34h-.12A1.67,1.67,0,0,0,341,353.73Z"/><rect class="cls-70" x="31.01" y="1.25" width="206.33" height="133.95" rx="5.07"/><path class="cls-71" d="M232.27,134.51H36.08A5.07,5.07,0,0,1,31,129.44v.69a5.07,5.07,0,0,0,5.07,5.07H232.27a5.07,5.07,0,0,0,5.07-5.07v-.69A5.07,5.07,0,0,1,232.27,134.51Z"/><path class="cls-72" d="M231.47,0H36.88A5.87,5.87,0,0,0,31,5.87V7.12a5.87,5.87,0,0,1,5.87-5.87H231.47a5.87,5.87,0,0,1,5.87,5.87V5.87A5.87,5.87,0,0,0,231.47,0Z"/><path class="cls-72" d="M231.47,1.25H36.88A5.87,5.87,0,0,0,31,7.12V22.86H237.34V7.12A5.87,5.87,0,0,0,231.47,1.25Z"/><path class="cls-73" d="M231.47,1.25H36.88A5.87,5.87,0,0,0,31,7.12v.2a5.86,5.86,0,0,1,5.87-5.86H231.47a5.86,5.86,0,0,1,5.87,5.86v-.2A5.87,5.87,0,0,0,231.47,1.25Z"/><rect class="cls-73" x="31.01" y="21.99" width="206.33" height="0.87"/><rect class="cls-74" x="39.36" y="29.35" width="190.09" height="98.79" rx="4.18"/><circle class="cls-75" cx="42.59" cy="12.05" r="5.84"/><path class="cls-73" d="M42.59,17.67a5.83,5.83,0,0,1-5.83-5.73s0,.08,0,.11a5.84,5.84,0,1,0,11.68,0s0-.07,0-.11A5.84,5.84,0,0,1,42.59,17.67Z"/><circle class="cls-72" cx="42.59" cy="12.05" r="4.53"/><circle class="cls-76" cx="42.59" cy="12.05" r="3.7"/><path class="cls-77" d="M42.59,8.46a3.7,3.7,0,0,1,3.69,3.65s0,0,0-.06a3.7,3.7,0,1,0-7.4,0v.06A3.7,3.7,0,0,1,42.59,8.46Z"/><circle class="cls-78" cx="42.59" cy="12.05" r="2.23"/><path class="cls-77" d="M42.59,9.94a2.22,2.22,0,0,1,2.22,2.17s0,0,0-.06a2.23,2.23,0,1,0-4.46,0v.06A2.23,2.23,0,0,1,42.59,9.94Z"/><circle class="cls-75" cx="59.51" cy="12.05" r="5.84"/><path class="cls-73" d="M59.51,17.67a5.83,5.83,0,0,1-5.83-5.73s0,.08,0,.11a5.84,5.84,0,1,0,11.67,0s0-.07,0-.11A5.83,5.83,0,0,1,59.51,17.67Z"/><circle class="cls-72" cx="59.51" cy="12.05" r="4.53"/><circle class="cls-79" cx="59.51" cy="12.05" r="3.7"/><path class="cls-80" d="M59.51,8.46a3.7,3.7,0,0,1,3.69,3.65s0,0,0-.06a3.7,3.7,0,0,0-7.4,0v.06A3.7,3.7,0,0,1,59.51,8.46Z"/><circle class="cls-81" cx="59.51" cy="12.05" r="2.23"/><path class="cls-82" d="M59.51,9.94a2.22,2.22,0,0,1,2.22,2.17s0,0,0-.06a2.24,2.24,0,0,0-4.47,0s0,0,0,.06A2.23,2.23,0,0,1,59.51,9.94Z"/><circle class="cls-75" cx="76.42" cy="12.05" r="5.84"/><path class="cls-73" d="M76.42,17.67a5.83,5.83,0,0,1-5.82-5.73.52.52,0,0,0,0,.11,5.84,5.84,0,0,0,11.68,0s0-.07,0-.11A5.83,5.83,0,0,1,76.42,17.67Z"/><circle class="cls-72" cx="76.42" cy="12.05" r="4.53"/><circle class="cls-83" cx="76.42" cy="12.05" r="3.7"/><path class="cls-84" d="M76.42,8.46a3.7,3.7,0,0,1,3.7,3.65v-.06a3.7,3.7,0,0,0-7.4,0s0,0,0,.06A3.7,3.7,0,0,1,76.42,8.46Z"/><circle class="cls-85" cx="76.42" cy="12.05" r="2.23"/><path class="cls-84" d="M76.42,9.94a2.23,2.23,0,0,1,2.23,2.17s0,0,0-.06a2.24,2.24,0,0,0-4.47,0s0,0,0,.06A2.22,2.22,0,0,1,76.42,9.94Z"/><polyline class="cls-86" points="49.39 35.15 44.85 39.69 49.38 44.23"/><polyline class="cls-86" points="60.8 35.15 65.34 39.69 60.81 44.23"/><line class="cls-86" x1="53.17" y1="45" x2="56.78" y2="35.15"/><circle class="cls-87" cx="70.17" cy="45.08" r="1.28"/><circle class="cls-87" cx="75.47" cy="45.08" r="1.28"/><circle class="cls-87" cx="80.78" cy="45.08" r="1.28"/><line class="cls-86" x1="47.12" y1="54.32" x2="183.64" y2="54.32"/><line class="cls-86" x1="191.92" y1="54.32" x2="202.45" y2="54.32"/><line class="cls-86" x1="208.35" y1="54.32" x2="221.78" y2="54.32"/><line class="cls-88" x1="47.12" y1="65.06" x2="132.53" y2="65.06"/><line class="cls-88" x1="145.24" y1="65.06" x2="160.55" y2="65.06"/><line class="cls-88" x1="160.55" y1="71.24" x2="118.99" y2="71.24"/><line class="cls-88" x1="113.28" y1="71.24" x2="104.9" y2="71.24"/><line class="cls-88" x1="98.25" y1="71.24" x2="89.87" y2="71.24"/><line class="cls-88" x1="83.22" y1="71.24" x2="74.84" y2="71.24"/><line class="cls-88" x1="68.19" y1="71.24" x2="59.81" y2="71.24"/><line class="cls-89" x1="189.34" y1="78.75" x2="59.81" y2="78.75"/><line class="cls-88" x1="50.14" y1="71.24" x2="47.12" y2="71.24"/><line class="cls-88" x1="50.14" y1="78.75" x2="47.12" y2="78.75"/><line class="cls-88" x1="50.14" y1="86.26" x2="47.12" y2="86.26"/><line class="cls-88" x1="50.14" y1="93.77" x2="47.12" y2="93.77"/><line class="cls-89" x1="197.19" y1="78.75" x2="215.07" y2="78.75"/><line class="cls-89" x1="59.51" y1="86.26" x2="95.34" y2="86.26"/><line class="cls-89" x1="59.51" y1="93.95" x2="95.34" y2="93.95"/><line class="cls-89" x1="59.51" y1="101.65" x2="95.34" y2="101.65"/><line class="cls-89" x1="59.51" y1="109.34" x2="95.34" y2="109.34"/><line class="cls-90" x1="118.99" y1="109.34" x2="191.92" y2="109.34"/><line class="cls-90" x1="162.23" y1="101.65" x2="191.92" y2="101.65"/><line class="cls-90" x1="180.14" y1="93.77" x2="191.92" y2="93.77"/><rect class="cls-70" x="253.59" y="52.5" width="101.91" height="158.61" rx="5.18"/><path class="cls-91" d="M350.43,210.52H258.66a5.07,5.07,0,0,1-5.07-5.07V206a5.07,5.07,0,0,0,5.07,5.07h91.77A5.07,5.07,0,0,0,355.5,206v-.59A5.07,5.07,0,0,1,350.43,210.52Z"/><path class="cls-72" d="M351.59,51.67h-94.1a3.9,3.9,0,0,0-3.9,3.9v.83a3.9,3.9,0,0,1,3.9-3.9h94.1a3.91,3.91,0,0,1,3.91,3.9v-.83A3.91,3.91,0,0,0,351.59,51.67Z"/><path class="cls-72" d="M351.59,52.5h-94.1a3.9,3.9,0,0,0-3.9,3.9V66.87H355.5V56.4A3.91,3.91,0,0,0,351.59,52.5Z"/><path class="cls-73" d="M351.59,52.5h-94.1a3.9,3.9,0,0,0-3.9,3.9v.14a3.89,3.89,0,0,1,3.9-3.9h94.1a3.9,3.9,0,0,1,3.91,3.9V56.4A3.91,3.91,0,0,0,351.59,52.5Z"/><rect class="cls-73" x="253.59" y="66.29" width="101.91" height="0.58"/><rect class="cls-92" x="259.14" y="71.19" width="91.11" height="135.23" rx="4.18"/><circle class="cls-75" cx="261.29" cy="59.68" r="3.88"/><path class="cls-73" d="M261.29,63.42a3.88,3.88,0,0,1-3.88-3.81s0,0,0,.07a3.89,3.89,0,1,0,7.77,0s0,0,0-.07A3.87,3.87,0,0,1,261.29,63.42Z"/><circle class="cls-72" cx="261.29" cy="59.68" r="3.01"/><circle class="cls-76" cx="261.29" cy="59.68" r="2.46"/><path class="cls-77" d="M261.29,57.29a2.46,2.46,0,0,1,2.45,2.43s0,0,0,0a2.46,2.46,0,0,0-4.92,0v0A2.46,2.46,0,0,1,261.29,57.29Z"/><circle class="cls-78" cx="261.29" cy="59.68" r="1.48"/><path class="cls-77" d="M261.29,58.28a1.48,1.48,0,0,1,1.48,1.44v0a1.49,1.49,0,0,0-3,0s0,0,0,0A1.48,1.48,0,0,1,261.29,58.28Z"/><circle class="cls-75" cx="272.54" cy="59.68" r="3.88"/><path class="cls-73" d="M272.54,63.42a3.88,3.88,0,0,1-3.88-3.81s0,0,0,.07a3.89,3.89,0,1,0,7.77,0s0,0,0-.07A3.87,3.87,0,0,1,272.54,63.42Z"/><circle class="cls-72" cx="272.54" cy="59.68" r="3.01"/><circle class="cls-79" cx="272.54" cy="59.68" r="2.46"/><path class="cls-80" d="M272.54,57.29A2.46,2.46,0,0,1,275,59.72s0,0,0,0a2.46,2.46,0,0,0-4.92,0v0A2.46,2.46,0,0,1,272.54,57.29Z"/><circle class="cls-81" cx="272.54" cy="59.68" r="1.48"/><path class="cls-82" d="M272.54,58.28A1.48,1.48,0,0,1,274,59.72v0a1.49,1.49,0,0,0-3,0s0,0,0,0A1.48,1.48,0,0,1,272.54,58.28Z"/><circle class="cls-75" cx="283.79" cy="59.68" r="3.88"/><path class="cls-73" d="M283.79,63.42a3.88,3.88,0,0,1-3.88-3.81v.07a3.88,3.88,0,1,0,7.76,0,.2.2,0,0,0,0-.07A3.87,3.87,0,0,1,283.79,63.42Z"/><circle class="cls-72" cx="283.79" cy="59.68" r="3.01"/><circle class="cls-83" cx="283.79" cy="59.68" r="2.46"/><path class="cls-84" d="M283.79,57.29a2.46,2.46,0,0,1,2.46,2.43v0a2.46,2.46,0,0,0-4.92,0v0A2.46,2.46,0,0,1,283.79,57.29Z"/><circle class="cls-85" cx="283.79" cy="59.68" r="1.48"/><path class="cls-84" d="M283.79,58.28a1.48,1.48,0,0,1,1.48,1.44v0a1.49,1.49,0,0,0-3,0s0,0,0,0A1.48,1.48,0,0,1,283.79,58.28Z"/><path class="cls-87" d="M327.49,88.56H264.3a.77.77,0,0,1,0-1.54h63.19a.77.77,0,1,1,0,1.54Z"/><path class="cls-87" d="M337.68,88.56H333A.77.77,0,1,1,333,87h4.69a.77.77,0,1,1,0,1.54Z"/><path class="cls-87" d="M345.15,88.56h-3.54a.77.77,0,0,1,0-1.54h3.54a.77.77,0,0,1,0,1.54Z"/><path class="cls-93" d="M299.79,95.7H264.3a.77.77,0,1,1,0-1.53h35.49a.77.77,0,1,1,0,1.53Z"/><path class="cls-93" d="M312.13,95.7H301.94a.77.77,0,1,1,0-1.53h10.19a.77.77,0,1,1,0,1.53Z"/><path class="cls-93" d="M312.13,99.81H305.8a.77.77,0,0,1,0-1.54h6.33a.77.77,0,1,1,0,1.54Z"/><path class="cls-93" d="M302.73,99.81H302a.77.77,0,1,1,0-1.54h.73a.77.77,0,1,1,0,1.54Z"/><path class="cls-93" d="M298.3,99.81h-5.57a.77.77,0,0,1,0-1.54h5.57a.77.77,0,1,1,0,1.54Z"/><path class="cls-93" d="M288.31,99.81h-5.57a.77.77,0,1,1,0-1.54h5.57a.77.77,0,1,1,0,1.54Z"/><path class="cls-93" d="M278.31,99.81h-5.57a.77.77,0,1,1,0-1.54h5.57a.77.77,0,1,1,0,1.54Z"/><path class="cls-94" d="M331.27,104.81H272.74a.77.77,0,1,1,0-1.54h58.53a.77.77,0,0,1,0,1.54Z"/><path class="cls-93" d="M266.31,99.81h-2a.77.77,0,0,1,0-1.54h2a.77.77,0,1,1,0,1.54Z"/><path class="cls-93" d="M266.31,104.81h-2a.77.77,0,0,1,0-1.54h2a.77.77,0,1,1,0,1.54Z"/><path class="cls-93" d="M266.31,109.8h-2a.77.77,0,1,1,0-1.54h2a.77.77,0,0,1,0,1.54Z"/><path class="cls-93" d="M266.31,114.8h-2a.77.77,0,1,1,0-1.54h2a.77.77,0,0,1,0,1.54Z"/><path class="cls-94" d="M343.76,104.81h-7.27a.77.77,0,1,1,0-1.54h7.27a.77.77,0,1,1,0,1.54Z"/><path class="cls-94" d="M296.37,109.8H272.54a.77.77,0,1,1,0-1.54h23.83a.77.77,0,0,1,0,1.54Z"/><path class="cls-95" d="M333,125.15H305.8a.77.77,0,1,1,0-1.53H333a.77.77,0,1,1,0,1.53Z"/><path class="cls-95" d="M333,120H313.24a.77.77,0,0,1,0-1.54H333a.77.77,0,0,1,0,1.54Z"/><path class="cls-95" d="M333,114.8h-7.84a.77.77,0,1,1,0-1.54H333a.77.77,0,0,1,0,1.54Z"/><path class="cls-94" d="M292.73,81.62H264.3a.77.77,0,1,1,0-1.54h28.43a.77.77,0,0,1,0,1.54Z"/><path class="cls-95" d="M311.18,137.32H264.3a.77.77,0,0,1,0-1.54h46.88a.77.77,0,1,1,0,1.54Z"/><path class="cls-95" d="M311.18,143.47H264.3a.77.77,0,1,1,0-1.54h46.88a.77.77,0,0,1,0,1.54Z"/><path class="cls-95" d="M311.18,149.63H264.3a.77.77,0,0,1,0-1.54h46.88a.77.77,0,1,1,0,1.54Z"/><path class="cls-95" d="M311.18,186.4H264.3a.77.77,0,1,1,0-1.54h46.88a.77.77,0,1,1,0,1.54Z"/><path class="cls-87" d="M321.2,130.17H308.39a.77.77,0,1,1,0-1.54H321.2a.77.77,0,0,1,0,1.54Z"/><path class="cls-87" d="M345.15,130.17H327.49a.77.77,0,1,1,0-1.54h17.66a.77.77,0,0,1,0,1.54Z"/><path class="cls-87" d="M345.15,137.32H327.49a.77.77,0,1,1,0-1.54h17.66a.77.77,0,0,1,0,1.54Z"/><path class="cls-87" d="M270.08,195.76H264.3a.77.77,0,0,1,0-1.54h5.78a.77.77,0,0,1,0,1.54Z"/><path class="cls-87" d="M270.08,200.44H264.3a.77.77,0,1,1,0-1.54h5.78a.77.77,0,1,1,0,1.54Z"/><path class="cls-87" d="M317.05,200.44H273.53a.77.77,0,0,1,0-1.54h43.52a.77.77,0,1,1,0,1.54Z"/><path class="cls-87" d="M281.41,195.76h-5.78a.77.77,0,0,1,0-1.54h5.78a.77.77,0,1,1,0,1.54Z"/><path class="cls-87" d="M292.73,195.76H287a.77.77,0,0,1,0-1.54h5.78a.77.77,0,1,1,0,1.54Z"/><path class="cls-87" d="M304.06,195.76h-5.78a.77.77,0,0,1,0-1.54h5.78a.77.77,0,1,1,0,1.54Z"/><path class="cls-87" d="M315.39,195.76h-5.78a.77.77,0,0,1,0-1.54h5.78a.77.77,0,0,1,0,1.54Z"/><path class="cls-87" d="M326.71,195.76h-5.77a.77.77,0,0,1,0-1.54h5.77a.77.77,0,1,1,0,1.54Z"/><path class="cls-87" d="M335.73,195.76h-3.47a.77.77,0,1,1,0-1.54h3.47a.77.77,0,0,1,0,1.54Z"/><rect class="cls-70" x="316.33" y="8.22" width="78.33" height="71.8" rx="3.16"/><path class="cls-72" d="M391.66,7.58H319.33a3,3,0,0,0-3,3v.64a3,3,0,0,1,3-3h72.33a3,3,0,0,1,3,3v-.64A3,3,0,0,0,391.66,7.58Z"/><path class="cls-72" d="M391.66,8.22H319.33a3,3,0,0,0-3,3v8h78.33v-8A3,3,0,0,0,391.66,8.22Z"/><path class="cls-73" d="M391.66,8.22H319.33a3,3,0,0,0-3,3v.11a3,3,0,0,1,3-3h72.33a3,3,0,0,1,3,3v-.11A3,3,0,0,0,391.66,8.22Z"/><rect class="cls-73" x="316.33" y="18.82" width="78.33" height="0.45"/><rect class="cls-96" x="320.6" y="22.59" width="70.03" height="53.83" rx="2.4"/><circle class="cls-75" cx="322.25" cy="13.74" r="2.98"/><path class="cls-73" d="M322.25,16.62a3,3,0,0,1-3-2.93v.05a3,3,0,1,0,6,0,.43.43,0,0,1,0-.05A3,3,0,0,1,322.25,16.62Z"/><circle class="cls-72" cx="322.25" cy="13.74" r="2.32"/><circle class="cls-76" cx="322.25" cy="13.74" r="1.89"/><path class="cls-77" d="M322.25,11.91a1.89,1.89,0,0,1,1.89,1.86v0a1.89,1.89,0,0,0-3.78,0v0A1.9,1.9,0,0,1,322.25,11.91Z"/><circle class="cls-78" cx="322.25" cy="13.74" r="1.14"/><path class="cls-77" d="M322.25,12.66a1.15,1.15,0,0,1,1.14,1.11v0a1.14,1.14,0,1,0-2.28,0v0A1.15,1.15,0,0,1,322.25,12.66Z"/><circle class="cls-75" cx="330.9" cy="13.74" r="2.98"/><path class="cls-73" d="M330.9,16.62a3,3,0,0,1-3-2.93.43.43,0,0,1,0,.05,3,3,0,1,0,6,0v-.05A3,3,0,0,1,330.9,16.62Z"/><circle class="cls-72" cx="330.9" cy="13.74" r="2.32"/><circle class="cls-79" cx="330.9" cy="13.74" r="1.89"/><path class="cls-80" d="M330.9,11.91a1.9,1.9,0,0,1,1.89,1.86v0a1.89,1.89,0,0,0-3.78,0v0A1.88,1.88,0,0,1,330.9,11.91Z"/><circle class="cls-81" cx="330.9" cy="13.74" r="1.14"/><path class="cls-82" d="M330.9,12.66A1.15,1.15,0,0,1,332,13.77v0a1.14,1.14,0,1,0-2.28,0v0A1.15,1.15,0,0,1,330.9,12.66Z"/><circle class="cls-75" cx="339.55" cy="13.74" r="2.98"/><path class="cls-73" d="M339.55,16.62a3,3,0,0,1-3-2.93.43.43,0,0,1,0,.05,3,3,0,1,0,6,0v-.05A3,3,0,0,1,339.55,16.62Z"/><circle class="cls-72" cx="339.55" cy="13.74" r="2.32"/><circle class="cls-83" cx="339.55" cy="13.74" r="1.89"/><path class="cls-84" d="M339.55,11.91a1.88,1.88,0,0,1,1.88,1.86v0a1.89,1.89,0,0,0-3.78,0v0A1.88,1.88,0,0,1,339.55,11.91Z"/><circle class="cls-85" cx="339.55" cy="13.74" r="1.14"/><path class="cls-84" d="M339.55,12.66a1.13,1.13,0,0,1,1.13,1.11v0a1.14,1.14,0,0,0-2.28,0v0A1.14,1.14,0,0,1,339.55,12.66Z"/><path class="cls-87" d="M373.13,35.94H324.57a.6.6,0,0,1-.6-.59.59.59,0,0,1,.6-.59h48.56a.58.58,0,0,1,.59.59A.59.59,0,0,1,373.13,35.94Z"/><path class="cls-87" d="M381,35.94h-3.6a.6.6,0,0,1-.6-.59.59.59,0,0,1,.6-.59H381a.59.59,0,0,1,.59.59A.6.6,0,0,1,381,35.94Z"/><path class="cls-87" d="M386.71,35.94H384a.59.59,0,0,1-.59-.59.58.58,0,0,1,.59-.59h2.72a.58.58,0,0,1,.59.59A.59.59,0,0,1,386.71,35.94Z"/><path class="cls-93" d="M351.85,41.43H324.57a.59.59,0,1,1,0-1.18h27.28a.59.59,0,1,1,0,1.18Z"/><path class="cls-93" d="M361.33,41.43H353.5a.59.59,0,0,1,0-1.18h7.83a.59.59,0,0,1,0,1.18Z"/><path class="cls-93" d="M361.33,44.59h-4.87a.6.6,0,0,1,0-1.19h4.87a.6.6,0,0,1,0,1.19Z"/><path class="cls-93" d="M354.1,44.59h-.56a.6.6,0,0,1,0-1.19h.56a.6.6,0,0,1,0,1.19Z"/><path class="cls-93" d="M350.7,44.59h-4.28a.6.6,0,0,1,0-1.19h4.28a.6.6,0,0,1,0,1.19Z"/><path class="cls-93" d="M343,44.59h-4.28a.6.6,0,0,1,0-1.19H343a.6.6,0,0,1,0,1.19Z"/><path class="cls-93" d="M335.34,44.59h-4.28a.6.6,0,1,1,0-1.19h4.28a.6.6,0,0,1,0,1.19Z"/><path class="cls-94" d="M376,48.43h-45a.6.6,0,1,1,0-1.19h45a.6.6,0,0,1,0,1.19Z"/><path class="cls-93" d="M326.11,44.59h-1.54a.6.6,0,1,1,0-1.19h1.54a.6.6,0,0,1,0,1.19Z"/><path class="cls-93" d="M326.11,48.43h-1.54a.6.6,0,1,1,0-1.19h1.54a.6.6,0,0,1,0,1.19Z"/><path class="cls-93" d="M326.11,52.27h-1.54a.6.6,0,1,1,0-1.19h1.54a.6.6,0,0,1,0,1.19Z"/><path class="cls-94" d="M385.65,48.43h-5.6a.6.6,0,0,1,0-1.19h5.6a.6.6,0,0,1,0,1.19Z"/><path class="cls-94" d="M349.22,52.27H330.9a.6.6,0,0,1,0-1.19h18.32a.6.6,0,0,1,0,1.19Z"/><path class="cls-95" d="M377.37,57.29H356.46a.59.59,0,0,1-.59-.59.58.58,0,0,1,.59-.59h20.91a.59.59,0,0,1,.59.59A.6.6,0,0,1,377.37,57.29Z"/><path class="cls-95" d="M377.37,54.63h-6a.6.6,0,0,1,0-1.19h6a.6.6,0,0,1,0,1.19Z"/><path class="cls-94" d="M346.42,30.6H324.57a.59.59,0,1,1,0-1.18h21.85a.59.59,0,1,1,0,1.18Z"/><path class="cls-95" d="M360.6,68h-36a.59.59,0,1,1,0-1.18h36a.59.59,0,1,1,0,1.18Z"/><path class="cls-87" d="M368.3,61.14h-9.84a.59.59,0,1,1,0-1.18h9.84a.59.59,0,1,1,0,1.18Z"/><path class="cls-87" d="M386.71,61.14H373.13a.59.59,0,0,1,0-1.18h13.58a.59.59,0,0,1,0,1.18Z"/><path class="cls-87" d="M386.71,66.64H373.13a.6.6,0,0,1,0-1.19h13.58a.6.6,0,0,1,0,1.19Z"/><path class="cls-87" d="M329,71.82h-4.44a.59.59,0,1,1,0-1.18H329a.59.59,0,1,1,0,1.18Z"/><path class="cls-87" d="M365.11,71.82H331.66a.59.59,0,0,1,0-1.18h33.45a.59.59,0,0,1,0,1.18Z"/></g></g></g></svg>