<svg xmlns="http://www.w3.org/2000/svg" viewBox="0 0 410.81 224.51"><defs><style>.cls-1{isolation:isolate;}.cls-2{fill:#000404;}.cls-3{fill:#d1cce5;}.cls-11,.cls-13,.cls-20,.cls-3,.cls-4,.cls-41,.cls-42,.cls-47,.cls-48,.cls-49,.cls-7,.cls-8{fill-rule:evenodd;}.cls-4{fill:#e2e4e8;}.cls-5{fill:#eeeeef;mix-blend-mode:multiply;}.cls-6{fill:#00a195;}.cls-7{fill:#535671;}.cls-8{fill:#66646d;}.cls-9{fill:#3e3a39;}.cls-10,.cls-11{fill:#fff;}.cls-12{fill:#17acb3;}.cls-13,.cls-21{fill:#e7e5e4;}.cls-14{fill:#55bece;}.cls-15,.cls-20{fill:#fff57f;}.cls-16{fill:#f29e7d;}.cls-17{fill:#f7be7e;}.cls-18{fill:#82ceed;}.cls-19{fill:#c6c7c8;}.cls-22{fill:#c42f41;}.cls-23{fill:#b51d23;}.cls-24{fill:#80191e;}.cls-25{fill:#2d0304;}.cls-26{fill:#f3aca9;}.cls-27{fill:#ed807b;}.cls-28{fill:#e9574e;}.cls-29{fill:#e62c10;}.cls-30{fill:#f9d19e;}.cls-31{fill:#f7b96b;}.cls-32{fill:#f4a236;}.cls-33{fill:#f08d00;}.cls-34{fill:#90d0d0;}.cls-35{fill:#5cbfb9;}.cls-36{fill:#00afaa;}.cls-37{fill:#9cc3e1;}.cls-38{fill:#6ca4d2;}.cls-39{fill:#2985c2;}.cls-40{fill:#0069b4;}.cls-41{fill:#505054;}.cls-42{fill:#b9babc;}.cls-43{fill:#f9c140;}.cls-44{fill:#fbd06d;}.cls-45{fill:#d7a230;}.cls-46{fill:#c6880b;}.cls-47{fill:#ffeec9;}.cls-48{fill:#464442;}.cls-49{fill:#796bae;}.cls-50{fill:#eddfc9;}</style></defs><g class="cls-1"><g id="Layer_2" data-name="Layer 2"><g id="OBJECTS"><rect class="cls-2" x="70.98" y="29.65" width="268.93" height="187.98" rx="14.3"/><path class="cls-3" d="M38.19,202.2v3.49c0,7.58,8,13.73,17.79,13.73H354.9c9.82,0,17.79-6.15,17.79-13.73V202.2Z"/><polygon class="cls-4" points="81.48 41.63 81.48 187.53 328.12 187.53 328.12 53.79 81.48 53.79 81.48 41.63"/><rect class="cls-5" x="256.01" y="67.08" width="66.69" height="89"/><rect class="cls-6" x="81.48" y="41.63" width="246.64" height="12.16"/><rect class="cls-5" x="96.42" y="41.63" width="151.61" height="138.32"/><path class="cls-7" d="M354.91,224.51h0Zm-299,0Zm299.1,0Zm.1,0Zm.08,0Zm8.19-2.14h0a17.74,17.74,0,0,1-8.18,2.14,17.74,17.74,0,0,0,8.18-2.14Zm.05,0h0l0,0,0,0Zm.09-.05h0l-.08.05.08-.05Zm.05,0Zm.05,0h0l0,0,0,0Zm.08,0Zm.05,0Z"/><path class="cls-8" d="M371,211.56H39.9c2.84,4.63,8.93,7.83,16,7.86H355.19a21.77,21.77,0,0,0,8.18-1.66h0l0,0h0l.08,0h.05l0,0h0l.06,0h0l.05,0h0A16,16,0,0,0,371,211.56Z"/><rect class="cls-9" x="252.22" y="64.52" width="67.03" height="87.96"/><rect class="cls-10" x="258.87" y="73.68" width="16.79" height="1.05"/><rect class="cls-10" x="258.87" y="76.28" width="8.87" height="1.05"/><rect class="cls-10" x="258.87" y="78.88" width="14.3" height="1.05"/><rect class="cls-10" x="265.52" y="84.07" width="8.35" height="1.05"/><rect class="cls-10" x="271.32" y="86.67" width="8.12" height="1.05"/><rect class="cls-10" x="270.72" y="76.28" width="15.13" height="1.05"/><rect class="cls-10" x="288.01" y="76.28" width="7.23" height="1.05"/><rect class="cls-10" x="297.98" y="76.28" width="9.75" height="1.05"/><rect class="cls-10" x="275.56" y="78.88" width="8.51" height="1.05"/><polygon class="cls-11" points="273.87 81.47 272.3 81.47 265.52 81.47 265.52 82.53 272.3 82.53 273.87 82.53 281.29 82.53 281.29 81.47 273.87 81.47"/><rect class="cls-10" x="276.42" y="84.07" width="8.35" height="1.05"/><rect class="cls-10" x="283.61" y="81.47" width="9.28" height="1.05"/><rect class="cls-10" x="294.74" y="81.47" width="4.87" height="1.05"/><rect class="cls-10" x="301.7" y="81.47" width="6.03" height="1.05"/><rect class="cls-10" x="286.62" y="84.07" width="10.54" height="1.05"/><rect class="cls-10" x="298.74" y="84.07" width="3.15" height="1.05"/><rect class="cls-10" x="281.75" y="86.67" width="6.04" height="1.05"/><rect class="cls-10" x="265.52" y="91.86" width="8.35" height="1.05"/><rect class="cls-10" x="265.52" y="94.46" width="8.35" height="1.05"/><rect class="cls-10" x="276.42" y="94.46" width="7.52" height="1.05"/><polygon class="cls-11" points="284.78 91.86 283.61 91.86 276.42 91.86 276.42 92.91 283.61 92.91 284.78 92.91 290.75 92.91 290.75 91.86 284.78 91.86"/><rect class="cls-10" x="292.17" y="91.86" width="3.75" height="1.05"/><rect class="cls-10" x="297.53" y="91.86" width="4.64" height="1.05"/><rect class="cls-10" x="291.25" y="94.46" width="8.35" height="1.05"/><rect class="cls-10" x="265.52" y="97.05" width="8.35" height="1.05"/><rect class="cls-10" x="265.52" y="99.65" width="8.35" height="1.05"/><rect class="cls-10" x="276.42" y="97.05" width="4.87" height="1.05"/><rect class="cls-10" x="276.42" y="99.65" width="15.31" height="1.05"/><polygon class="cls-11" points="292.89 97.05 289.1 97.05 283.61 97.05 283.61 98.11 289.1 98.11 292.89 98.11 299.61 98.11 299.61 97.05 292.89 97.05"/><rect class="cls-10" x="301.7" y="97.05" width="6.03" height="1.05"/><rect class="cls-10" x="293.58" y="99.65" width="8.58" height="1.05"/><rect class="cls-10" x="285.61" y="94.46" width="3.55" height="1.05"/><rect class="cls-10" x="258.87" y="104.85" width="8.87" height="1.05"/><rect class="cls-10" x="258.87" y="107.44" width="14.3" height="1.05"/><rect class="cls-10" x="265.52" y="110.04" width="8.35" height="1.05"/><rect class="cls-10" x="265.52" y="112.63" width="8.35" height="1.06"/><polygon class="cls-11" points="282.86 104.85 281.27 104.85 270.72 104.85 270.72 105.9 281.27 105.9 282.86 105.9 285.5 105.9 285.5 104.85 282.86 104.85"/><rect class="cls-10" x="288.25" y="104.85" width="13.48" height="1.05"/><rect class="cls-10" x="275.56" y="107.44" width="8.51" height="1.05"/><rect class="cls-10" x="276.42" y="112.63" width="6.49" height="1.06"/><polygon class="cls-11" points="289.29 110.04 288.25 110.04 276.42 110.04 276.42 111.09 288.25 111.09 289.29 111.09 295.32 111.09 295.32 110.04 289.29 110.04"/><rect class="cls-10" x="284.77" y="112.63" width="12.4" height="1.06"/><rect class="cls-10" x="298.74" y="112.63" width="3.15" height="1.06"/><rect class="cls-10" x="281.75" y="115.23" width="6.04" height="1.05"/><polygon class="cls-11" points="279.44 115.23 277.26 115.23 271.32 115.23 271.32 116.28 277.26 116.28 279.44 116.28 300.37 116.28 300.37 115.23 279.44 115.23"/><rect class="cls-10" x="302.04" y="115.23" width="3.36" height="1.05"/><rect class="cls-10" x="265.52" y="120.43" width="8.35" height="1.05"/><rect class="cls-10" x="265.52" y="123.03" width="8.35" height="1.05"/><rect class="cls-10" x="276.42" y="120.43" width="13.74" height="1.05"/><rect class="cls-10" x="276.42" y="123.03" width="7.52" height="1.05"/><rect class="cls-10" x="292.17" y="120.43" width="3.75" height="1.05"/><rect class="cls-10" x="297.53" y="120.43" width="4.64" height="1.05"/><rect class="cls-10" x="291.25" y="123.03" width="8.35" height="1.05"/><rect class="cls-10" x="285.61" y="123.03" width="3.55" height="1.05"/><rect class="cls-10" x="258.87" y="127.29" width="8.87" height="1.05"/><rect class="cls-10" x="258.87" y="129.88" width="14.3" height="1.05"/><rect class="cls-10" x="265.52" y="132.48" width="8.35" height="1.05"/><rect class="cls-10" x="265.52" y="135.07" width="8.35" height="1.05"/><rect class="cls-10" x="271.32" y="137.67" width="8.12" height="1.05"/><rect class="cls-10" x="270.72" y="127.29" width="8.39" height="1.05"/><polygon class="cls-11" points="290.06 127.28 288.25 127.28 281.27 127.28 281.27 128.34 288.25 128.34 290.06 128.34 307.73 128.34 307.73 127.28 290.06 127.28"/><rect class="cls-10" x="275.56" y="129.88" width="8.51" height="1.05"/><rect class="cls-10" x="276.42" y="135.07" width="6.49" height="1.05"/><polygon class="cls-11" points="289.1 132.48 288.25 132.48 276.42 132.48 276.42 133.53 288.25 133.53 289.1 133.53 295.32 133.53 295.32 132.48 289.1 132.48"/><rect class="cls-10" x="297.17" y="132.48" width="4.3" height="1.05"/><rect class="cls-10" x="303.56" y="132.48" width="4.17" height="1.05"/><rect class="cls-10" x="284.77" y="135.07" width="12.4" height="1.05"/><rect class="cls-10" x="298.74" y="135.07" width="3.15" height="1.05"/><rect class="cls-10" x="281.75" y="137.67" width="6.04" height="1.05"/><rect class="cls-10" x="265.52" y="145.46" width="8.35" height="1.05"/><polygon class="cls-11" points="273.87 142.87 270.86 142.87 265.52 142.87 265.52 143.92 270.86 143.92 273.87 143.92 290.16 143.92 290.16 142.87 273.87 142.87"/><rect class="cls-10" x="276.42" y="145.46" width="7.52" height="1.05"/><rect class="cls-10" x="292.17" y="142.87" width="3.75" height="1.05"/><rect class="cls-10" x="297.53" y="142.87" width="4.64" height="1.05"/><rect class="cls-10" x="291.25" y="145.46" width="8.35" height="1.05"/><rect class="cls-10" x="285.61" y="145.46" width="3.55" height="1.05"/><rect class="cls-12" x="252.22" y="64.52" width="67.03" height="5.22"/><path class="cls-13" d="M316,66.8a1.37,1.37,0,1,1-1.37-1.37A1.37,1.37,0,0,1,316,66.8Z"/><path class="cls-13" d="M311.47,66.8a1.37,1.37,0,1,1-1.37-1.37A1.37,1.37,0,0,1,311.47,66.8Z"/><rect class="cls-10" x="90.91" width="153.1" height="176.51"/><rect class="cls-12" x="90.91" width="153.1" height="8.53"/><path class="cls-13" d="M239.73,4.05a2,2,0,1,1-2-2A2,2,0,0,1,239.73,4.05Z"/><path class="cls-13" d="M232.92,4.05a2,2,0,1,1-2-2A2,2,0,0,1,232.92,4.05Z"/><rect class="cls-14" x="90.91" y="23.88" width="153.1" height="9.93"/><rect class="cls-10" x="188.49" y="26.66" width="46.92" height="4.35"/><rect class="cls-15" x="101.32" y="27.38" width="13.73" height="2.93"/><rect class="cls-15" x="116.17" y="27.38" width="13.73" height="2.93"/><rect class="cls-15" x="131.02" y="27.38" width="13.73" height="2.93"/><rect class="cls-15" x="145.87" y="27.38" width="13.73" height="2.93"/><rect class="cls-16" x="121.23" y="48.62" width="27.88" height="22.59"/><path class="cls-11" d="M238.48,27.18a1.09,1.09,0,0,0,0,2.18,1.09,1.09,0,1,0,0-2.18Zm-1,.09h0a1.49,1.49,0,0,1,2.07,0,1.4,1.4,0,0,1,0,2,1.49,1.49,0,0,1-2.07,0A1.4,1.4,0,0,1,237.45,27.27Z"/><path class="cls-11" d="M239.77,29.84l-.33-.32.18-.14.17-.21.33.32Z"/><path class="cls-11" d="M241.49,30.77a.3.3,0,0,1,0,.41.31.31,0,0,1-.42,0l-1.28-1.25.42-.41Z"/><path class="cls-11" d="M238.4,29.17a1,1,0,0,0,.32-.06h0a.1.1,0,0,0,.06-.13.1.1,0,0,0-.13-.06.52.52,0,0,1-.24,0,.49.49,0,0,1-.47-.28.1.1,0,0,0-.13-.06.1.1,0,0,0-.05.13.68.68,0,0,0,.65.41Z"/><rect class="cls-17" x="152.24" y="48.43" width="27.88" height="22.59"/><rect class="cls-18" x="183.25" y="48.32" width="27.88" height="22.59"/><rect class="cls-19" x="103.1" y="148.08" width="39.92" height="1.97"/><rect class="cls-19" x="103.1" y="151.64" width="39.92" height="1.97"/><rect class="cls-19" x="103.1" y="155.21" width="39.92" height="1.97"/><rect class="cls-19" x="103.1" y="158.77" width="39.92" height="1.97"/><rect class="cls-19" x="103.1" y="162.33" width="39.92" height="1.97"/><rect class="cls-19" x="103.1" y="165.9" width="39.92" height="1.97"/><rect class="cls-19" x="103.1" y="169.46" width="39.92" height="1.97"/><rect class="cls-19" x="147.98" y="148.08" width="39.92" height="1.97"/><rect class="cls-19" x="147.98" y="151.64" width="39.92" height="1.97"/><rect class="cls-19" x="147.98" y="155.21" width="39.92" height="1.97"/><rect class="cls-19" x="147.98" y="158.77" width="39.92" height="1.97"/><rect class="cls-19" x="147.98" y="162.33" width="39.92" height="1.97"/><rect class="cls-19" x="147.98" y="165.9" width="39.92" height="1.97"/><rect class="cls-19" x="147.98" y="169.46" width="39.92" height="1.97"/><rect class="cls-19" x="193.11" y="148.08" width="39.92" height="1.97"/><rect class="cls-19" x="193.11" y="151.64" width="39.92" height="1.97"/><rect class="cls-19" x="193.11" y="155.21" width="39.92" height="1.97"/><rect class="cls-19" x="193.11" y="158.77" width="39.92" height="1.97"/><rect class="cls-19" x="193.11" y="162.33" width="39.92" height="1.97"/><rect class="cls-19" x="193.11" y="165.9" width="39.92" height="1.97"/><rect class="cls-19" x="193.11" y="169.46" width="39.92" height="1.97"/><rect class="cls-14" x="90.91" y="85.87" width="153.1" height="47.79"/><rect class="cls-15" x="105.26" y="93.77" width="39.48" height="31.99"/><rect class="cls-10" x="154.92" y="105" width="63.17" height="1.05"/><rect class="cls-10" x="154.92" y="107.6" width="63.17" height="1.05"/><rect class="cls-10" x="154.92" y="110.19" width="63.17" height="1.05"/><rect class="cls-10" x="154.92" y="112.79" width="41.62" height="1.05"/><polygon class="cls-20" points="92.66 109.77 94.54 108.68 96.42 107.6 96.42 109.77 96.42 111.94 94.54 110.85 92.66 109.77"/><polygon class="cls-20" points="242.25 109.77 240.37 108.68 238.49 107.6 238.49 109.77 238.49 111.94 240.37 110.85 242.25 109.77"/><rect class="cls-16" x="103.1" y="135.92" width="39.92" height="10.33"/><rect class="cls-18" x="147.98" y="136.34" width="39.92" height="10.33"/><rect class="cls-17" x="193.11" y="136.45" width="39.92" height="10.33"/><rect class="cls-21" x="345.12" y="114.67" width="15.4" height="66.04" transform="translate(-22.19 222.92) rotate(-34.06)"/><rect class="cls-22" x="356.33" y="156.16" width="13.65" height="13.65" transform="translate(-29.01 231.2) rotate(-34.04)"/><rect class="cls-23" x="348.18" y="144.09" width="13.65" height="13.64" transform="translate(-23.63 224.65) rotate(-34.05)"/><rect class="cls-24" x="340.02" y="132.03" width="13.65" height="13.65" transform="translate(-18.26 218.1) rotate(-34.06)"/><rect class="cls-25" x="331.87" y="119.96" width="13.65" height="13.65" transform="translate(-12.92 211.39) rotate(-34.05)"/><rect class="cls-21" x="353.91" y="110.85" width="15.4" height="66.04" transform="translate(-25.22 101.2) rotate(-15.4)"/><rect class="cls-26" x="359.69" y="154.85" width="13.65" height="13.65" transform="translate(-29.77 103.15) rotate(-15.4)"/><rect class="cls-27" x="355.82" y="140.81" width="13.65" height="13.65" transform="translate(-26.19 101.65) rotate(-15.41)"/><rect class="cls-28" x="351.96" y="126.77" width="13.65" height="13.65" transform="translate(-22.59 100.08) rotate(-15.4)"/><rect class="cls-29" x="348.09" y="112.73" width="13.65" height="13.65" transform="translate(-19.01 98.56) rotate(-15.4)"/><rect class="cls-21" x="337.31" y="135.21" width="66.04" height="15.4" transform="translate(214.08 507.81) rotate(-87.92)"/><rect class="cls-30" x="362.84" y="154.53" width="13.65" height="13.64" transform="translate(195.13 524.98) rotate(-87.94)"/><rect class="cls-31" x="363.37" y="139.98" width="13.65" height="13.65" transform="translate(210.18 511.48) rotate(-87.94)"/><rect class="cls-32" x="363.89" y="125.43" width="13.65" height="13.65" transform="translate(225.18 497.95) rotate(-87.93)"/><rect class="cls-33" x="364.42" y="110.87" width="13.65" height="13.65" transform="translate(240.26 484.46) rotate(-87.94)"/><rect class="cls-21" x="345.46" y="136.72" width="66.04" height="15.4" transform="translate(124.59 460.08) rotate(-72.07)"/><rect class="cls-34" x="365.98" y="155.15" width="13.65" height="13.65" transform="translate(103.89 466.77) rotate(-72.06)"/><rect class="cls-35" x="370.46" y="141.3" width="13.65" height="13.65" transform="translate(120.17 461.45) rotate(-72.06)"/><rect class="cls-36" x="374.95" y="127.44" width="13.65" height="13.65" transform="translate(136.53 456.19) rotate(-72.08)"/><rect class="cls-6" x="379.43" y="113.59" width="13.65" height="13.65" transform="translate(152.75 450.81) rotate(-72.06)"/><rect class="cls-21" x="352.73" y="140.32" width="66.04" height="15.4" transform="translate(45.22 382.02) rotate(-55.49)"/><rect class="cls-37" x="368.47" y="156.4" width="13.65" height="13.65" transform="translate(28.12 379.92) rotate(-55.48)"/><rect class="cls-38" x="376.72" y="144.41" width="13.65" height="13.65" transform="translate(41.58 381.53) rotate(-55.48)"/><rect class="cls-39" x="384.98" y="132.41" width="13.65" height="13.64" transform="translate(55.08 383.18) rotate(-55.49)"/><rect class="cls-40" x="393.23" y="120.41" width="13.65" height="13.64" transform="translate(68.51 384.74) rotate(-55.48)"/><path class="cls-41" d="M369,170.16a1.35,1.35,0,1,1-1.29,1.41A1.35,1.35,0,0,1,369,170.16Z"/><path class="cls-42" d="M369,170.93a.55.55,0,0,1,.58.53l.48,11.6a.57.57,0,0,1-.54.58.55.55,0,0,1-.58-.53l-.48-11.6A.56.56,0,0,1,369,170.93Z"/><rect class="cls-43" x="12.86" y="132.74" width="88.78" height="16.74" transform="translate(-54.33 37.47) rotate(-25.03)"/><rect class="cls-44" x="15.59" y="145.06" width="88.78" height="3.81" transform="translate(-56.54 39.17) rotate(-25.03)"/><rect class="cls-45" x="11.09" y="133.13" width="88.78" height="8.37" transform="translate(-52.89 36.37) rotate(-25.03)"/><rect class="cls-46" x="10.2" y="133.33" width="88.78" height="4.19" transform="translate(-52.18 35.83) rotate(-25.04)"/><polygon class="cls-47" points="116.63 113.37 101.01 129.91 93.92 114.74 116.63 113.37"/><polygon class="cls-48" points="116.63 113.37 111.43 118.87 109.08 113.83 116.63 113.37"/><path class="cls-49" d="M.78,167.39l.07.15a8.28,8.28,0,0,0,11,4l3.3-1.54L8.08,154.84l-3.3,1.54A8.29,8.29,0,0,0,.78,167.39Z"/><rect class="cls-50" x="11.34" y="152.79" width="5.97" height="16.74" transform="translate(-66.85 21.2) rotate(-25.03)"/></g></g></g></svg>